<?xml version="1.0" encoding="UTF-8"?>
<svg xmlns="http://www.w3.org/2000/svg" id="Layer_1" version="1.1" viewBox="0 0 1726 479">
  <defs>
    <style>
      .st0 {
        fill: #0d4cb2;
      }
    </style>
  </defs>
  <g>
    <g>
      <path class="st0" d="M218.28,454.35h12.47v3.52h-8.72v4.27h7.51v3.55h-7.51v4.39h8.72v3.55h-12.47v-19.27Z"></path>
      <path class="st0" d="M245.09,469.53c0,2.43-2.07,4.51-5.98,4.51-2.74,0-4.81-.99-6.04-2.43l2.04-2.34c1.11,1.23,2.5,1.83,4.21,1.83,1.41,0,2.13-.6,2.13-1.5,0-2.58-7.73-1.32-7.73-6.49,0-2.19,1.86-4.3,5.53-4.3,2.58,0,4.63.87,5.71,2.38l-2.07,2.16c-.96-1.14-2.16-1.59-3.55-1.59-1.26,0-2.01.57-2.01,1.35,0,2.52,7.75,1.05,7.75,6.43Z"></path>
      <path class="st0" d="M247.29,459.22h2.56v-3.73h3.67v3.73h3.91v3.25h-3.88v6.1c0,1.35.57,2.01,1.65,2.01.66,0,1.32-.3,1.68-.72l1.65,2.74c-.81.78-2.16,1.44-3.94,1.44-2.92,0-4.78-1.83-4.78-5.35v-6.22h-2.53v-3.25Z"></path>
      <path class="st0" d="M274.98,452.94v20.68h-3.7v-1.56c-1.05,1.23-2.53,1.98-4.39,1.98-3.82,0-6.91-3.13-6.91-7.61s2.92-7.63,6.91-7.63c1.89,0,3.37.69,4.39,1.86v-7.73h3.7ZM271.28,466.4c0-2.31-1.59-4.15-3.79-4.15s-3.85,1.83-3.85,4.15,1.62,4.18,3.85,4.18,3.79-1.86,3.79-4.18Z"></path>
      <path class="st0" d="M278.62,471.6c0-1.32,1.05-2.41,2.38-2.41s2.41,1.08,2.41,2.41-1.08,2.37-2.41,2.37-2.38-1.05-2.38-2.37Z"></path>
      <path class="st0" d="M292.69,470.82l7.24-6.97c1.41-1.32,2.04-2.46,2.04-3.76,0-1.56-1.17-2.71-2.95-2.71-1.65,0-2.95,1.02-3.82,2.8l-2.86-1.89c1.08-2.25,3.19-4.36,6.85-4.36,4,0,6.46,2.77,6.46,6.07,0,2.04-.93,3.79-3.16,5.89l-4.81,4.48h8.09v3.25h-13.11v-2.8Z"></path>
      <path class="st0" d="M308.99,464c0-5.8,3.16-10.07,7.48-10.07s7.7,4.27,7.64,10.04c.06,5.8-3.13,10.07-7.49,10.07s-7.63-4.27-7.63-10.04ZM320.44,464c0-3.91-1.56-6.61-3.97-6.61-2.25,0-3.82,2.68-3.82,6.58s1.59,6.61,3.91,6.61,3.88-2.67,3.88-6.58Z"></path>
      <path class="st0" d="M327.39,464c0-5.8,3.16-10.07,7.48-10.07s7.7,4.27,7.64,10.04c.06,5.8-3.13,10.07-7.49,10.07s-7.63-4.27-7.63-10.04ZM338.84,464c0-3.91-1.56-6.61-3.97-6.61-2.25,0-3.82,2.68-3.82,6.58s1.59,6.61,3.91,6.61,3.88-2.67,3.88-6.58Z"></path>
      <path class="st0" d="M346.06,473.62l7.24-16.02h-8.6v-3.25h12.48v2.89l-7.18,16.38h-3.94Z"></path>
    </g>
    <g>
      <path class="st0" d="M51.98,274.44c-1.25.86-3.46,3.6-4.54,4.88-11.77,13.95-17.8,31.4-9.69,48.91.41.9,3.2,6.16,3.88,6.16,16.6-15.61,21.88-39.67,11.14-60.26-.47-.13-.52.13-.78.31Z"></path>
      <path class="st0" d="M526.12,274.13c-10.83,20.53-5.42,44.68,11.14,60.26,6.53-8.13,8.66-19.37,6.96-29.56-1.76-10.6-8.25-21.01-15.59-28.67-.38-.4-2.11-2.33-2.51-2.03Z"></path>
      <path class="st0" d="M68.63,352.3c-.71.63-3.04,5.57-3.58,6.78-8.5,18.87-7.61,40,9.22,53.78,7.19-11.47,10.09-25.62,6.91-38.92-1.65-6.9-6.04-15.77-11.02-20.84-.58-.59-.65-1.56-1.53-.8Z"></path>
      <path class="st0" d="M509.66,351.98c-9.48,10.08-14.53,24.25-13.05,38.12.84,7.85,3.77,16.18,8,22.75,11.01-8.81,15.95-22.92,14.24-36.84-.87-7.07-4.18-16.49-7.87-22.58-.22-.37-.81-1.58-1.33-1.46Z"></path>
      <path class="st0" d="M14.61,251.71c.45.42,2.94,2.68,3.32,2.51,11.74-19.16,9.75-45.18-6.9-60.76-6.06,11.48-10.25,24.24-7.7,37.36,1.46,7.52,5.71,15.65,11.29,20.89Z"></path>
      <path class="st0" d="M549.65,257.49c3.59-14.52-1.04-28.98-11.41-39.44-5.65-5.7-12.92-10.23-20.29-13.29-2.78,19.29,6.19,37.09,22.05,47.78,1.1.74,9.09,5.49,9.64,4.95Z"></path>
      <path class="st0" d="M576.96,280.4c-12.27,5.41-22.27,16.72-26.13,29.58-2.46,8.19-2.68,16.93-1.48,25.35,23.28-7.11,32.07-32.53,27.62-54.93Z"></path>
      <path class="st0" d="M84.47,117.49c22.43,3.79,46.25-6.72,55.56-27.93-8.63-.98-17.33-1.08-25.8,1.03-13.78,3.43-25.56,13.09-29.75,26.9Z"></path>
      <path class="st0" d="M472.75,410.04c-14.05,5.86-25.2,18.24-28.85,33.14-1.64,6.68-1.98,13.7-1.28,20.54,5.22-1.01,10.41-3.95,14.59-7.23,13.88-10.92,17.68-29.59,15.54-46.45Z"></path>
      <path class="st0" d="M446.69,63.19c4.52-24.32-15.07-43.22-36.72-49.59-1.14,23.38,15.11,42.71,36.72,49.59Z"></path>
      <path class="st0" d="M44.68,167c9.23-13.42,11.85-28.72,6.53-44.33-.98-2.89-2.31-5.72-3.93-8.31-16.17,15.91-24.41,40.91-9.41,60.57.78.19,6.04-6.82,6.81-7.93Z"></path>
      <path class="st0" d="M168.91,13.6c-21.66,6.35-41.24,25.28-36.72,49.59,21.62-6.88,37.82-26.22,36.72-49.59Z"></path>
      <path class="st0" d="M539.29,173.53c.32.34,1.48,1.68,1.89,1.4,6.33-9.18,9.04-19.73,7.13-30.82-1.94-11.33-8.99-21.55-16.7-29.75-7.14,11.89-8.58,26.72-4.07,39.85,2.15,6.27,7.14,14.56,11.75,19.32Z"></path>
      <path class="st0" d="M379.84,54.57c12.37,18.28,34.71,24.82,55.82,19.4.56-.14,3.48-.84,3.5-1.2-8.11-15.54-24.65-22.75-41.8-21.73-2.1.12-17.24,2.29-17.51,3.52Z"></path>
      <path class="st0" d="M39.06,252.41c15.75-10.72,24.61-28.44,21.87-47.65-15.74,6.44-30.37,19.88-32.6,37.55-.66,5.24-.1,10.05.9,15.19.57.55,8.71-4.32,9.83-5.08Z"></path>
      <path class="st0" d="M516.12,414.33c-.07.53-.47,2.21-.06,2.47,24.54-1.1,39.09-23.29,41.12-45.99-22.17,3.7-37.95,21.52-41.07,43.52Z"></path>
      <path class="st0" d="M106.13,410.04c-2.17,16.84,1.68,35.54,15.54,46.45,4.15,3.27,9.38,6.26,14.59,7.23,1.16-11.01-.5-22.51-5.91-32.23-5.29-9.5-14.21-17.23-24.22-21.45Z"></path>
      <path class="st0" d="M561.11,254.32c.27,0,3.69-3.07,4.13-3.53,5-5.14,8.98-12.92,10.32-19.97,2.51-13.14-1.65-25.87-7.7-37.36-11.99,11.31-16.64,28.14-13.34,44.26,1.15,5.63,3.5,11.83,6.59,16.6Z"></path>
      <path class="st0" d="M494.41,117.49c-4.33-13.82-15.87-23.45-29.75-26.9-8.49-2.11-17.16-1.99-25.8-1.03,9.31,21.21,33.12,31.72,55.56,27.93Z"></path>
      <path class="st0" d="M92.32,137.59c-22.42,3.36-44.21,18.61-43.94,43.32,22.32-2.88,41.9-20.35,43.94-43.32Z"></path>
      <path class="st0" d="M1.92,280.4c-1.52,9.11-1.43,18.64,1.17,27.55,3.74,12.79,13.6,23.49,26.45,27.38,3.96-22.46-6.5-45.61-27.62-54.93Z"></path>
      <path class="st0" d="M361.66,27.23c9.63,5.96,21.06,8.15,32.3,7.72-1.84-10.51-9.18-20.08-18.23-25.56-10.12-6.12-22.49-7.8-34.19-7.4,3.05,10.17,11.14,19.69,20.11,25.24Z"></path>
      <path class="st0" d="M223.53,22.55c6.05-5.33,11.53-12.78,13.81-20.56-11.75-.39-24,1.24-34.19,7.4-9.03,5.46-16.42,15.05-18.23,25.56,13.92.59,28.05-3.08,38.61-12.39Z"></path>
      <path class="st0" d="M495.25,104.26c.96.68,6.64,4.61,7.3,4.13,7.86-23.47-7.92-44.62-28.23-54.6-4.21,20.26,4.47,38.81,20.93,50.48Z"></path>
      <path class="st0" d="M530.51,180.9c.26-24.67-21.55-39.98-43.94-43.32,2.06,22.98,21.61,40.44,43.94,43.32Z"></path>
      <path class="st0" d="M139.72,72.77c.03.66,9.69,2.48,10.86,2.63,19.06,2.3,37.59-4.85,48.46-20.83-.1-.45-4.24-1.39-5.02-1.58-6.01-1.44-12.73-2.3-18.9-1.94-14.73.85-28.55,8.42-35.4,21.73Z"></path>
      <path class="st0" d="M61.4,407.84c-4.94-19.09-20.16-33.75-39.71-37.03,2,22.71,16.58,44.9,41.12,45.99.42-.27.19-.49.18-.79-.09-2.15-1.03-5.99-1.59-8.17Z"></path>
      <path class="st0" d="M451.09,471.87c19.85,7.17,38.01-.7,50.84-16.17,1.49-1.8,4.77-5.87,5.68-7.82.18-.38.41-.64.29-1.12-22.53-5.47-45.69,5.11-56.81,25.11Z"></path>
      <path class="st0" d="M70.97,446.77c-.07.36.04.61.17.93.61,1.52,4.27,6.2,5.49,7.69,12.79,15.62,31.22,23.72,51.16,16.48-11.16-19.97-34.27-30.57-56.81-25.1Z"></path>
      <path class="st0" d="M83.63,104.26c2.36-1.68,5.26-4,7.32-6.02,11.61-11.33,17.1-28.46,13.6-44.46-20.28,9.95-36.14,31.17-28.23,54.6.62.44,6.34-3.44,7.3-4.13Z"></path>
      <g>
        <path class="st0" d="M276.27,240.37c-18.73.69-36.53,10.67-51.97,20.57-14.93,9.58-26.77,20.26-40.49,31.07-18.68,14.72-40.75,25.48-65.12,25.12l152.69,94.18c4.2.56,8.28,1.84,11.47,4.69l-6.57-175.63Z"></path>
        <path class="st0" d="M269.81,417.88c-10.7-.2-29.45,8.31-40.5,11.28-15.29,4.1-31.5,3.98-46.9.5-2.86-.65-5.68-1.47-8.47-2.36v18.52l110.49-.63c.46-10.55-.65-27.05-14.61-27.32Z"></path>
        <path class="st0" d="M460.2,317.13c-24.38.35-46.44-10.41-65.12-25.12-13.73-10.81-25.56-21.5-40.49-31.07-15.44-9.9-33.24-19.87-51.97-20.57l-6.57,175.63c3.19-2.84,7.28-4.13,11.47-4.69l152.69-94.18Z"></path>
        <path class="st0" d="M349.57,429.16c-11.06-2.97-29.81-11.48-40.5-11.28-13.96.26-15.07,16.76-14.61,27.32l110.49.63v-18.52c-2.79.89-5.61,1.71-8.47,2.36-15.4,3.48-31.61,3.61-46.9-.5Z"></path>
        <g>
          <path class="st0" d="M290.84,91.66l-3.94-.06-.1,6.45,3.94.06c2.3.04,3.82-1.23,3.85-3.18.03-1.92-1.45-3.23-3.75-3.27Z"></path>
          <path class="st0" d="M404.6,130.45c-3.02-2.31-7.47-1.59-9.93,1.62-2.43,3.18-1.96,7.67,1.06,9.98,3.05,2.33,7.48,1.64,9.93-1.58s1.98-7.7-1.07-10.03Z"></path>
          <path class="st0" d="M459.25,137.44c-42.86-52.89-106.13-80.16-169.81-79.91-63.67-.25-126.95,27.02-169.81,79.91-76.95,94.96-56.58,233.02,41.95,303.63l5.44,3.51v-26.99c2.24.29,4.35,1.64,6.51,2.43,14.21,5.19,31.02,6.8,45.97,4.38,9.94-1.61,20.14-5.84,29.83-8.78,4.55-1.38,9.14-2.66,13.74-3.84l-154.57-95.59c-5.79-1.59-12.53-3.49-16.5-8.3-3.06-3.71-3.62-8.92.34-12.23,4.87-4.06,20.05-9.49,24.28-2.66,5.13,8.28-8.7,12.8-14.57,13.47,1.75,1.57,4.9,1.93,7.21,2.36,49.01,9.16,74.66-36.73,107.7-62.12,17-13.07,36.47-23.21,58.06-25.87.37-.05.65-.35.66-.73.02-1.41-.16-4.64-.03-5.43.21-1.32,1.22-1.57,1.24-1.75.06-.97-.82-.64-1.12-1.55-.02-.07-.04-.14-.06-.21-.31-1.3.49-2.62,1.76-3.05l1.6-.54-5.49-40.33c4.81-7.12,8.19-15.08,11.3-23.07l2.37-7.84v34.68c0,.17-1.82,1.31-2.26,2.14-1.88,3.54,1.12,7.34,4.46,6.97,3.34.37,6.34-3.43,4.46-6.97-.44-.82-2.26-1.97-2.26-2.14v-34.68l2.37,7.84c3.11,7.99,6.48,15.95,11.3,23.07l-5.49,40.33,1.6.54c1.27.43,2.07,1.75,1.76,3.05-.02.07-.04.14-.06.21-.3.91-1.18.58-1.12,1.55.01.17,1.02.43,1.24,1.75.13.78-.06,4.01-.03,5.43,0,.37.29.68.66.73,21.58,2.66,41.05,12.81,58.06,25.87,33.04,25.39,58.69,71.29,107.7,62.12,2.32-.43,5.46-.79,7.21-2.36-5.87-.68-19.69-5.19-14.57-13.47,4.23-6.83,19.41-1.4,24.28,2.66,3.97,3.31,3.4,8.52.34,12.23-3.97,4.81-10.71,6.7-16.5,8.3l-154.57,95.59c4.6,1.18,9.19,2.46,13.74,3.84,9.69,2.94,19.88,7.18,29.83,8.78,14.95,2.41,31.77.81,45.97-4.38,2.16-.79,4.27-2.15,6.51-2.43v26.99l5.44-3.51c98.53-70.61,118.9-208.66,41.95-303.63ZM132.05,215.43l-5.37.06-3.39,9.19,4.03,3.57-1.58,4.28-17.85-16.17,1.76-4.77,24.08-.7-1.68,4.55ZM139.92,200.29c-3.02,5.78-9.95,7.74-15.64,4.77-5.72-2.99-7.98-9.96-5.04-15.58,1.75-3.34,4.01-5.11,6.55-5.9l1.59,4.1c-1.63.64-3.23,1.81-4.26,3.79-1.78,3.4-.28,7.61,3.31,9.48,3.55,1.86,7.86.69,9.77-2.96.89-1.7,1.13-3.74.55-5.42l4.18-1.08c1,2.76.65,5.61-1.02,8.79ZM145.3,189.87l-18.44-12.63,8.17-11.94,3.37,2.3-5.71,8.34,4.08,2.8,4.92-7.19,3.39,2.33-4.92,7.19,4.2,2.88,5.71-8.34,3.39,2.32-8.18,11.94ZM161.1,168.63l-16.28-15.32,9.92-10.54,2.97,2.8-6.93,7.36,3.61,3.39,5.97-6.35,3,2.82-5.97,6.35,3.71,3.49,6.93-7.36,3,2.82-9.92,10.54ZM185.21,145.92l-17.67-5.04,9.63,11.67-3.36,2.77-14.22-17.23,3.63-3,17.78,5.17-9.74-11.8,3.36-2.77,14.22,17.23-3.63,2.99ZM202.14,134.97c-5.56,3.41-12.51,1.54-15.86-3.93-3.37-5.5-1.73-12.64,3.68-15.95,3.21-1.97,6.06-2.32,8.65-1.7l-.74,4.34c-1.73-.29-3.7-.1-5.6,1.06-3.27,2-4.14,6.38-2.03,9.83,2.1,3.42,6.39,4.63,9.9,2.48,1.16-.71,2.1-1.65,2.75-2.71l-3.3-5.38,3.72-2.28,4.75,7.76c-.91,2.32-2.8,4.58-5.92,6.49ZM213.56,128.12l-9.75-20.11,3.92-1.9,9.75,20.11-3.92,1.9ZM236.18,118.7l-14.97-10.65,5.18,14.22-4.09,1.49-7.65-21,4.42-1.61,15.03,10.81-5.24-14.38,4.1-1.49,7.65,21-4.42,1.61ZM245.71,115.8l-4.92-21.8,14.12-3.18.9,3.98-9.86,2.23,1.09,4.83,8.5-1.92.91,4.01-8.5,1.92,1.12,4.97,9.86-2.23.91,4.01-14.11,3.19ZM263.86,112l-2.52-22.2,14.38-1.63.46,4.05-10.04,1.14.56,4.92,8.66-.98.46,4.09-8.66.98.58,5.06,10.04-1.14.46,4.09-14.38,1.63ZM294.38,110.23l-4.43-8.3-3.21-.05-.13,8.23-4.36-.07.36-22.34,7.95.13c5.26.09,8.7,2.93,8.63,7.18-.05,3.07-1.86,5.3-4.81,6.34l5.05,8.97-5.05-.08ZM308.16,111.12l-4.34-.41,2.08-22.25,4.34.41-2.08,22.25ZM332.65,115.28l-4.62-.91-7.3-16.86-2.93,14.85-4.28-.84,4.32-21.93,4.62.91,7.27,17.03,2.96-15.02,4.28.84-4.32,21.93ZM348.98,116.55c1.28.45,2.61.58,3.84.42l2.08-5.96,4.11,1.44-3,8.59c-2.37.76-5.31.73-8.77-.48-6.15-2.15-9.1-8.72-6.99-14.78,2.13-6.09,8.69-9.33,14.68-7.24,3.55,1.24,5.63,3.22,6.79,5.62l-3.83,2.17c-.87-1.52-2.26-2.93-4.37-3.67-3.62-1.27-7.57.83-8.9,4.65-1.32,3.78.46,7.88,4.34,9.24ZM384.96,117.29c-3.33-1.9-7.59-.54-9.59,2.97-1.98,3.49-.96,7.83,2.61,9.87,1.67.95,3.7,1.26,5.39.74l.93,4.22c-2.79.9-5.63.45-8.75-1.33-5.67-3.22-7.39-10.21-4.22-15.79,3.19-5.61,10.23-7.62,15.74-4.48,3.27,1.86,4.96,4.18,5.67,6.75l-4.15,1.45c-.58-1.65-1.7-3.29-3.64-4.39ZM393.08,145.52c-5.07-3.87-5.99-11.16-2.1-16.25,3.92-5.12,11.19-6.15,16.26-2.27s6,11.21,2.1,16.3-11.2,6.1-16.26,2.22ZM405.51,155.15l15.76-15.84,3.09,3.07-12.86,12.93,7.74,7.69-2.9,2.92-10.83-10.77ZM418.48,168.46l17.37-14.05,2.74,3.39-14.17,11.47,6.86,8.48-3.2,2.59-9.6-11.87ZM437.77,195.27l-7.83-12.17,18.8-12.09,7.83,12.17-3.43,2.21-5.47-8.5-4.16,2.68,4.71,7.33-3.46,2.23-4.71-7.33-4.28,2.75,5.47,8.5-3.46,2.23ZM443.58,207.74c-2.84-5.87-.3-12.6,5.47-15.4,5.8-2.81,12.75-.49,15.52,5.23,1.64,3.39,1.72,6.26.84,8.77l-4.24-1.16c.46-1.7.46-3.67-.51-5.68-1.67-3.45-5.95-4.75-9.58-2.99-3.61,1.75-5.23,5.91-3.44,9.61.59,1.22,1.44,2.25,2.43,3.01l5.68-2.75,1.9,3.92-8.19,3.97c-2.22-1.13-4.28-3.23-5.88-6.53ZM471.29,227.4l-3.26-9.57-4.69,1.59,2.81,8.25-3.89,1.33-2.81-8.25-4.82,1.64,3.26,9.57-3.89,1.33-4.66-13.7,21.16-7.2,4.66,13.7-3.86,1.31Z"></path>
          <polygon class="st0" points="122.53 215.55 113.04 215.69 120.17 221.96 122.53 215.55"></polygon>
        </g>
      </g>
    </g>
  </g>
  <g>
    <path class="st0" d="M971.21,211.78c11.11,26.81,11.96,33.93,41.45,39.38l4.7.42v34.35h-155.54v-34.35c8.97-1.26,35.47-.42,35.47-13.41,0-5.87-4.27-16.76-5.98-22.62l-11.54-31h-91.87l-11.96,31c-2.14,5.45-5.13,13.83-5.13,19.27,0,14.66,23.5,14.66,33.76,16.34l4.27.42v34.35h-132.04v-34.35c37.6-3.77,45.72-26.81,58.54-56.56L818.23.64h66.23l86.74,211.14ZM865.66,148.11l-31.62-81.27-32.9,81.27h64.52Z"></path>
    <path class="st0" d="M1623.51,196.83h-33.33c-1.28-11.73-4.27-25.14-11.11-35.19-6.84-10.05-20.94-10.47-32.47-10.47h-11.96v54.04c0,11.31,0,26.81,1.71,31.42,3.85,10.47,22.65,10.47,31.62,10.47,60.25,0,94.43-27.65,127.76-74.57l29.91,14.24-47,98.87h-253.82v-34.35l7.26-1.26c26.07-4.61,26.92-13.82,26.92-39.8V64.45c0-15.92-1.71-24.3-24.36-28.07l-9.83-1.68V.36h246.56l42.3,86.72-29.06,13.82c-25.64-37.29-59.82-62-107.68-62-8.12,0-32.47.42-38.03,7.54-3.85,5.03-4.27,15.92-4.27,25.14v41.06h21.37c10.25,0,20.94-.84,26.92-8.8,5.98-8.8,7.26-25.97,7.26-36.87h33.33v129.87Z"></path>
    <path class="st0" d="M1360.28,208.3c-22.22,57.81-79.48,90.49-141.44,90.49-88.45,0-152.98-62.42-152.98-149.14S1121.42-.75,1212.43-.75c24.36,0,49.14,5.45,70.93,16.76l5.13-9.64h25.64l38.03,98.87-32.9,11.73-1.71-2.09c-10.26-17.18-20.51-35.19-35.04-49.43-15.38-15.08-36.32-27.23-58.54-27.23-58.54,0-75.63,64.51-75.63,110.18,0,22.62,6.41,53.62,19.23,72.89,13.67,21.78,36.75,35.19,63.24,35.19,42.3,0,75.63-31.42,94.44-66.19l35.04,18.01Z"></path>
  </g>
  <g>
    <path class="st0" d="M676.72,316.26h55.61l7.6,21.69-8.64,3.2c-1.46-3.54-3.17-6.39-5.13-8.56-1.96-2.17-4.12-3.6-6.49-4.3-2.37-.71-5.13-1.06-8.28-1.06h-10.17v17.12h3.34c2.51,0,4.21-.19,5.08-.57.88-.38,1.5-.97,1.89-1.77.38-.8.57-2.4.57-4.8v-2.61h8.5v29.07h-8.5v-2.97c0-2.01-.23-3.48-.69-4.4-.46-.92-1.09-1.55-1.89-1.88-.8-.33-2.56-.5-5.3-.5h-3.01v15.78c0,1.68.08,2.7.24,3.06.16.36.47.64.93.84s1.46.3,2.99.3h5.59c4.17,0,7.69-.62,10.56-1.85,2.87-1.24,5.42-3.23,7.67-5.98,2.25-2.75,3.97-6.02,5.18-9.81l8.72,3.1-8.74,25.51h-57.62v-9.49h1.67c2.23,0,3.72-.16,4.49-.49.76-.33,1.3-.9,1.62-1.72.16-.49.24-1.88.24-4.18v-37.39c0-2.03-.14-3.36-.41-3.98s-.69-1.09-1.26-1.4c-.57-.31-1.7-.47-3.39-.47h-2.96v-9.49Z"></path>
    <path class="st0" d="M770.39,334.61v6.54c3.6-2.52,6.68-4.25,9.24-5.17,2.56-.92,5.18-1.38,7.85-1.38,3.09,0,5.82.67,8.19,2.02,2.37,1.35,4.1,3.03,5.18,5.04,1.08,2.02,1.62,4.88,1.62,8.58v20.46c0,1.74.12,2.85.36,3.34.24.49.61.85,1.12,1.08.38.17,1.53.25,3.44.25h2.34v9.49h-28.02v-9.49c2.13-.03,3.33-.08,3.58-.15.79-.23,1.32-.61,1.58-1.13.25-.52.38-1.65.38-3.39v-18.02c0-2.32-.24-3.83-.72-4.52-.76-1.15-1.97-1.72-3.63-1.72-1.37,0-2.83.31-4.39.93-1.56.62-3.66,1.9-6.3,3.83v19.5c0,2.13.22,3.44.67,3.93s1.53.74,3.23.74h1.54v9.49h-27.74v-9.49h1.38c2.2,0,3.56-.1,4.08-.29.53-.2.92-.54,1.19-1.03.27-.49.41-1.46.41-2.9v-22.88h-7.07v-9.49c5.71-.73,11.06-2.12,16.05-4.18h4.43Z"></path>
    <path class="st0" d="M854.65,338.67c1.69-2.47,3.37-4.22,5.06-5.26,1.69-1.04,3.47-1.55,5.35-1.55s3.36.57,4.44,1.7c1.08,1.13,1.62,2.58,1.62,4.35,0,1.61-.52,2.94-1.55,4.01-1.03,1.07-2.31,1.6-3.84,1.6l-1.58-.05-1.62-.05c-.86,0-1.72.33-2.58.99,1.75,2.99,2.63,5.85,2.63,8.58,0,2.89-.87,5.7-2.6,8.43-1.74,2.73-4.14,4.85-7.21,6.36-3.07,1.51-6.75,2.27-11.05,2.27-1.24,0-2.49-.07-3.75-.22s-2.52-.37-3.79-.66c-.86.56-1.51,1.1-1.96,1.62-.45.52-.67,1.01-.67,1.47,0,1.02,1.02,1.67,3.06,1.96l19.76,2.9c5.89.85,10.14,2.47,12.75,4.86,2.61,2.42,3.91,5.31,3.91,8.65,0,2.95-.99,5.67-2.96,8.18-1.97,2.51-5.2,4.56-9.67,6.17-4.47,1.61-10.11,2.41-16.92,2.41-5.98,0-10.93-.6-14.85-1.79-3.91-1.2-6.69-2.7-8.33-4.52-1.64-1.82-2.46-3.55-2.46-5.19,0-1.87.61-3.55,1.84-5.04,1.22-1.49,3.75-3.2,7.57-5.13-2.36-.89-4.12-1.97-5.3-3.25-1.59-1.71-2.39-3.46-2.39-5.27,0-1.97.74-3.9,2.22-5.81,1.48-1.9,3.7-3.79,6.66-5.66-1.66-1.05-2.95-2.19-3.89-3.42-.94-1.23-1.7-2.73-2.29-4.5-.59-1.77-.88-3.59-.88-5.46,0-4.92,1.95-9.1,5.85-12.55,3.9-3.44,9.03-5.17,15.4-5.17,2.83,0,5.42.34,7.76,1.01,2.34.68,4.43,1.69,6.28,3.04ZM834.17,388.05c-1.69,1.34-2.76,2.37-3.22,3.07-.46.7-.69,1.48-.69,2.33,0,1.6,1.27,2.86,3.82,3.76,2.55.9,5.81,1.35,9.79,1.35,2.9,0,5.46-.26,7.69-.79,2.23-.52,3.71-1.16,4.44-1.92.48-.49.72-1.16.72-2.01,0-.95-.48-1.74-1.43-2.38-.95-.64-3.26-1.19-6.92-1.64l-14.18-1.77ZM841.1,344.06c-2.04,0-3.72.77-5.04,2.31-1.32,1.54-1.98,3.62-1.98,6.25,0,2.43.64,4.36,1.91,5.8,1.27,1.44,2.91,2.17,4.92,2.17s3.62-.75,4.94-2.24,1.98-3.42,1.98-5.78c0-2.62-.63-4.7-1.89-6.22-1.26-1.53-2.87-2.29-4.85-2.29Z"></path>
    <path class="st0" d="M899.15,334.61v36.35c0,1.74.1,2.8.29,3.2.19.39.53.7,1.03.91.49.21,1.6.32,3.32.32h2.58v9.49h-29.5v-9.49h2.53c1.65,0,2.71-.09,3.17-.27.46-.18.8-.48,1.03-.91.22-.43.33-1.28.33-2.56v-23.46h-7.07v-9.25c2.51-.13,4.92-.41,7.23-.84,2.31-.43,4.37-.93,6.18-1.52,1.18-.39,2.62-1.05,4.34-1.97h4.54ZM891.42,312.67c2.42,0,4.48.88,6.18,2.63,1.7,1.75,2.55,3.88,2.55,6.37s-.85,4.67-2.55,6.42c-1.7,1.75-3.76,2.63-6.18,2.63s-4.48-.88-6.18-2.63c-1.7-1.75-2.55-3.88-2.55-6.37s.88-4.58,2.63-6.37c1.75-1.79,3.79-2.68,6.11-2.68Z"></path>
    <path class="st0" d="M935.24,334.61v6.54c3.6-2.52,6.68-4.25,9.24-5.17,2.56-.92,5.18-1.38,7.85-1.38,3.09,0,5.82.67,8.19,2.02,2.37,1.35,4.1,3.03,5.18,5.04,1.08,2.02,1.62,4.88,1.62,8.58v20.46c0,1.74.12,2.85.36,3.34.24.49.61.85,1.12,1.08.38.17,1.53.25,3.44.25h2.34v9.49h-28.02v-9.49c2.13-.03,3.33-.08,3.58-.15.79-.23,1.32-.61,1.58-1.13.25-.52.38-1.65.38-3.39v-18.02c0-2.32-.24-3.83-.72-4.52-.76-1.15-1.97-1.72-3.63-1.72-1.37,0-2.83.31-4.39.93-1.56.62-3.66,1.9-6.3,3.83v19.5c0,2.13.22,3.44.67,3.93s1.53.74,3.23.74h1.54v9.49h-27.74v-9.49h1.38c2.2,0,3.56-.1,4.08-.29.53-.2.92-.54,1.19-1.03.27-.49.41-1.46.41-2.9v-22.88h-7.07v-9.49c5.71-.73,11.06-2.12,16.05-4.18h4.43Z"></path>
    <path class="st0" d="M1025.9,366.69l6.54,6.79c-3.76,4.43-7.58,7.63-11.48,9.62-3.9,1.98-8.11,2.98-12.63,2.98-7.26,0-13.37-2.53-18.33-7.6-4.96-5.07-7.45-11.19-7.45-18.37,0-4.72,1.11-9.04,3.34-12.96,2.23-3.92,5.31-6.99,9.26-9.2s8.42-3.32,13.42-3.32c3.18,0,6.08.48,8.69,1.43s4.89,2.31,6.85,4.08c1.96,1.77,3.53,3.91,4.73,6.42s2.01,5.11,2.46,7.8c.19,1.35.29,3.48.29,6.4h-32.13c.06,4.17,1.25,7.54,3.56,10.11,2.31,2.57,5.13,3.86,8.47,3.86,2.13,0,4.46-.66,6.97-1.99,2.51-1.33,5-3.34,7.45-6.03ZM1016.36,352.47c-.22-1.97-.68-3.52-1.36-4.65-.69-1.13-1.61-2.03-2.78-2.71-1.17-.67-2.39-1.01-3.66-1.01-1.34,0-2.63.34-3.88,1.03-1.24.69-2.24,1.62-2.99,2.8s-1.24,2.69-1.46,4.53h16.14Z"></path>
    <path class="st0" d="M1084.77,366.69l6.54,6.79c-3.76,4.43-7.58,7.63-11.48,9.62-3.9,1.98-8.11,2.98-12.63,2.98-7.26,0-13.37-2.53-18.33-7.6-4.96-5.07-7.45-11.19-7.45-18.37,0-4.72,1.11-9.04,3.34-12.96,2.23-3.92,5.31-6.99,9.26-9.2s8.42-3.32,13.42-3.32c3.18,0,6.08.48,8.69,1.43s4.89,2.31,6.85,4.08c1.96,1.77,3.53,3.91,4.73,6.42s2.01,5.11,2.46,7.8c.19,1.35.29,3.48.29,6.4h-32.13c.06,4.17,1.25,7.54,3.56,10.11,2.31,2.57,5.13,3.86,8.47,3.86,2.13,0,4.46-.66,6.97-1.99,2.51-1.33,5-3.34,7.45-6.03ZM1075.22,352.47c-.22-1.97-.68-3.52-1.36-4.65-.69-1.13-1.61-2.03-2.78-2.71-1.17-.67-2.39-1.01-3.66-1.01-1.34,0-2.63.34-3.88,1.03-1.24.69-2.24,1.62-2.99,2.8s-1.24,2.69-1.46,4.53h16.14Z"></path>
    <path class="st0" d="M1121.58,334.61v7.13c2.55-2.75,4.76-4.63,6.63-5.63,1.87-1,3.66-1.5,5.38-1.5,1.56,0,2.96.37,4.19,1.11,1.23.74,2.2,1.8,2.92,3.17.72,1.38,1.08,2.85,1.08,4.43,0,2.07-.66,3.94-1.99,5.61-1.33,1.67-3.18,2.51-5.58,2.51-.64,0-1.2-.05-1.7-.15-.49-.1-1.54-.43-3.13-.98-.83-.26-1.52-.39-2.06-.39-.83,0-2.2.54-4.12,1.62v19.23c0,1.64.12,2.71.36,3.2.24.49.63.85,1.17,1.08.54.23,1.72.34,3.53.34h2.1v9.49h-29.46v-9.49h2.45c1.76,0,2.86-.1,3.29-.29.43-.2.76-.54.99-1.03.22-.49.34-1.59.34-3.3v-22.58h-7.07v-9.45c5.19-.33,10.58-1.71,16.18-4.13h4.49Z"></path>
    <path class="st0" d="M1169.99,334.61v36.35c0,1.74.1,2.8.29,3.2.19.39.53.7,1.03.91.49.21,1.6.32,3.32.32h2.58v9.49h-29.5v-9.49h2.53c1.65,0,2.71-.09,3.17-.27.46-.18.8-.48,1.03-.91.22-.43.33-1.28.33-2.56v-23.46h-7.07v-9.25c2.51-.13,4.92-.41,7.23-.84,2.31-.43,4.37-.93,6.18-1.52,1.18-.39,2.62-1.05,4.34-1.97h4.54ZM1162.26,312.67c2.42,0,4.48.88,6.18,2.63,1.7,1.75,2.55,3.88,2.55,6.37s-.85,4.67-2.55,6.42c-1.7,1.75-3.76,2.63-6.18,2.63s-4.48-.88-6.18-2.63c-1.7-1.75-2.55-3.88-2.55-6.37s.88-4.58,2.63-6.37c1.75-1.79,3.79-2.68,6.11-2.68Z"></path>
    <path class="st0" d="M1206.08,334.61v6.54c3.6-2.52,6.68-4.25,9.24-5.17,2.56-.92,5.18-1.38,7.85-1.38,3.09,0,5.82.67,8.19,2.02,2.37,1.35,4.1,3.03,5.18,5.04,1.08,2.02,1.62,4.88,1.62,8.58v20.46c0,1.74.12,2.85.36,3.34.24.49.61.85,1.12,1.08.38.17,1.53.25,3.44.25h2.34v9.49h-28.02v-9.49c2.13-.03,3.33-.08,3.58-.15.79-.23,1.32-.61,1.58-1.13.25-.52.38-1.65.38-3.39v-18.02c0-2.32-.24-3.83-.72-4.52-.76-1.15-1.97-1.72-3.63-1.72-1.37,0-2.83.31-4.39.93-1.56.62-3.66,1.9-6.3,3.83v19.5c0,2.13.22,3.44.67,3.93s1.53.74,3.23.74h1.54v9.49h-27.74v-9.49h1.38c2.2,0,3.56-.1,4.08-.29.53-.2.92-.54,1.19-1.03.27-.49.41-1.46.41-2.9v-22.88h-7.07v-9.49c5.71-.73,11.06-2.12,16.05-4.18h4.43Z"></path>
    <path class="st0" d="M1290.35,338.67c1.69-2.47,3.37-4.22,5.06-5.26,1.69-1.04,3.47-1.55,5.35-1.55s3.36.57,4.44,1.7c1.08,1.13,1.62,2.58,1.62,4.35,0,1.61-.52,2.94-1.55,4.01-1.03,1.07-2.31,1.6-3.84,1.6l-1.58-.05-1.62-.05c-.86,0-1.72.33-2.58.99,1.75,2.99,2.63,5.85,2.63,8.58,0,2.89-.87,5.7-2.6,8.43-1.74,2.73-4.14,4.85-7.21,6.36-3.07,1.51-6.75,2.27-11.05,2.27-1.24,0-2.49-.07-3.75-.22s-2.52-.37-3.79-.66c-.86.56-1.51,1.1-1.96,1.62-.45.52-.67,1.01-.67,1.47,0,1.02,1.02,1.67,3.06,1.96l19.76,2.9c5.89.85,10.14,2.47,12.75,4.86,2.61,2.42,3.91,5.31,3.91,8.65,0,2.95-.99,5.67-2.96,8.18-1.97,2.51-5.2,4.56-9.67,6.17-4.47,1.61-10.11,2.41-16.92,2.41-5.98,0-10.93-.6-14.85-1.79-3.91-1.2-6.69-2.7-8.33-4.52-1.64-1.82-2.46-3.55-2.46-5.19,0-1.87.61-3.55,1.84-5.04,1.22-1.49,3.75-3.2,7.57-5.13-2.36-.89-4.12-1.97-5.3-3.25-1.59-1.71-2.39-3.46-2.39-5.27,0-1.97.74-3.9,2.22-5.81,1.48-1.9,3.7-3.79,6.66-5.66-1.66-1.05-2.95-2.19-3.89-3.42-.94-1.23-1.7-2.73-2.29-4.5-.59-1.77-.88-3.59-.88-5.46,0-4.92,1.95-9.1,5.85-12.55,3.9-3.44,9.03-5.17,15.4-5.17,2.83,0,5.42.34,7.76,1.01,2.34.68,4.43,1.69,6.28,3.04ZM1269.87,388.05c-1.69,1.34-2.76,2.37-3.22,3.07-.46.7-.69,1.48-.69,2.33,0,1.6,1.27,2.86,3.82,3.76,2.55.9,5.81,1.35,9.79,1.35,2.9,0,5.46-.26,7.69-.79,2.23-.52,3.71-1.16,4.44-1.92.48-.49.72-1.16.72-2.01,0-.95-.48-1.74-1.43-2.38-.95-.64-3.26-1.19-6.92-1.64l-14.18-1.77ZM1276.79,344.06c-2.04,0-3.72.77-5.04,2.31-1.32,1.54-1.98,3.62-1.98,6.25,0,2.43.64,4.36,1.91,5.8,1.27,1.44,2.91,2.17,4.92,2.17s3.62-.75,4.94-2.24,1.98-3.42,1.98-5.78c0-2.62-.63-4.7-1.89-6.22-1.26-1.53-2.87-2.29-4.85-2.29Z"></path>
    <path class="st0" d="M1399.16,316.26h6.77l6.54,24.65-8.88,2.66c-2.96-5.87-5.75-10.04-8.35-12.5-3.63-3.38-7.56-5.07-11.79-5.07-3.09,0-5.98.88-8.67,2.66-2.69,1.77-4.82,4.38-6.4,7.82s-2.36,7.48-2.36,12.1c0,7.05,1.81,13.12,5.42,18.2,3.61,5.08,8.35,7.62,14.2,7.62,3.72,0,7.3-1.1,10.74-3.3,4.3-2.72,8-6.38,11.12-10.97l7.4,5.66c-4.8,6.76-9.19,11.46-13.17,14.12-6.14,4.1-12.98,6.15-20.51,6.15-6.27,0-11.93-1.55-17.01-4.65-5.07-3.1-9.12-7.44-12.14-13.01-3.02-5.58-4.53-11.66-4.53-18.25s1.47-12.54,4.41-17.93c2.94-5.39,6.95-9.6,12.02-12.62,5.07-3.02,10.73-4.53,16.96-4.53s11.88,1.38,16.65,4.13l1.57-2.95Z"></path>
    <path class="st0" d="M1448.8,334.61c5.44,0,10.18,1.1,14.23,3.3s7.15,5.19,9.33,8.98,3.27,8.22,3.27,13.31c0,7.67-2.42,13.91-7.26,18.69s-11.3,7.18-19.38,7.18-14.8-2.41-19.67-7.23c-4.71-4.59-7.07-10.81-7.07-18.64,0-5.15,1.07-9.58,3.22-13.28,2.15-3.71,5.26-6.68,9.33-8.93,4.07-2.25,8.74-3.37,13.99-3.37ZM1448.99,345.39c-1.81,0-3.52.56-5.11,1.67-1.59,1.12-2.82,2.75-3.7,4.92-.88,2.16-1.31,4.92-1.31,8.26s.43,6.3,1.29,8.56,2.04,3.94,3.56,5.02,3.17,1.62,4.99,1.62c2.8,0,5.2-1.22,7.21-3.66,2.01-2.44,3.01-6.24,3.01-11.39s-.93-8.73-2.79-11.24c-1.86-2.51-4.24-3.76-7.14-3.76Z"></path>
    <path class="st0" d="M1506.43,312.67v57.55c0,1.94.08,3.08.24,3.44.22.66.72,1.13,1.48,1.43.48.2,1.77.29,3.87.29h1.67v9.49h-29.55v-9.49h1.81c1.91,0,3.13-.12,3.68-.37s.94-.64,1.19-1.18.38-1.75.38-3.62v-43.88h-7.07v-9.49c5.7-.4,11.58-1.79,17.66-4.18h4.63Z"></path>
    <path class="st0" d="M1541.8,312.67v57.55c0,1.94.08,3.08.24,3.44.22.66.72,1.13,1.48,1.43.48.2,1.77.29,3.87.29h1.67v9.49h-29.55v-9.49h1.81c1.91,0,3.13-.12,3.68-.37s.94-.64,1.19-1.18.38-1.75.38-3.62v-43.88h-7.07v-9.49c5.7-.4,11.58-1.79,17.66-4.18h4.63Z"></path>
    <path class="st0" d="M1599,366.69l6.54,6.79c-3.76,4.43-7.58,7.63-11.48,9.62-3.9,1.98-8.11,2.98-12.63,2.98-7.26,0-13.37-2.53-18.33-7.6-4.96-5.07-7.45-11.19-7.45-18.37,0-4.72,1.11-9.04,3.34-12.96,2.23-3.92,5.31-6.99,9.26-9.2s8.42-3.32,13.42-3.32c3.18,0,6.08.48,8.69,1.43s4.89,2.31,6.85,4.08c1.96,1.77,3.53,3.91,4.73,6.42s2.01,5.11,2.46,7.8c.19,1.35.29,3.48.29,6.4h-32.13c.06,4.17,1.25,7.54,3.56,10.11,2.31,2.57,5.13,3.86,8.47,3.86,2.13,0,4.46-.66,6.97-1.99,2.51-1.33,5-3.34,7.45-6.03ZM1589.45,352.47c-.22-1.97-.68-3.52-1.36-4.65-.69-1.13-1.61-2.03-2.78-2.71-1.17-.67-2.39-1.01-3.66-1.01-1.34,0-2.63.34-3.88,1.03-1.24.69-2.24,1.62-2.99,2.8s-1.24,2.69-1.46,4.53h16.14Z"></path>
    <path class="st0" d="M1651.47,338.67c1.69-2.47,3.37-4.22,5.06-5.26,1.69-1.04,3.47-1.55,5.35-1.55s3.36.57,4.44,1.7c1.08,1.13,1.62,2.58,1.62,4.35,0,1.61-.52,2.94-1.55,4.01-1.03,1.07-2.31,1.6-3.84,1.6l-1.58-.05-1.62-.05c-.86,0-1.72.33-2.58.99,1.75,2.99,2.63,5.85,2.63,8.58,0,2.89-.87,5.7-2.6,8.43-1.74,2.73-4.14,4.85-7.21,6.36-3.07,1.51-6.75,2.27-11.05,2.27-1.24,0-2.49-.07-3.75-.22s-2.52-.37-3.79-.66c-.86.56-1.51,1.1-1.96,1.62-.45.52-.67,1.01-.67,1.47,0,1.02,1.02,1.67,3.06,1.96l19.76,2.9c5.89.85,10.14,2.47,12.75,4.86,2.61,2.42,3.91,5.31,3.91,8.65,0,2.95-.99,5.67-2.96,8.18-1.97,2.51-5.2,4.56-9.67,6.17-4.47,1.61-10.11,2.41-16.92,2.41-5.98,0-10.93-.6-14.85-1.79-3.91-1.2-6.69-2.7-8.33-4.52-1.64-1.82-2.46-3.55-2.46-5.19,0-1.87.61-3.55,1.84-5.04,1.22-1.49,3.75-3.2,7.57-5.13-2.36-.89-4.12-1.97-5.3-3.25-1.59-1.71-2.39-3.46-2.39-5.27,0-1.97.74-3.9,2.22-5.81,1.48-1.9,3.7-3.79,6.66-5.66-1.66-1.05-2.95-2.19-3.89-3.42-.94-1.23-1.7-2.73-2.29-4.5-.59-1.77-.88-3.59-.88-5.46,0-4.92,1.95-9.1,5.85-12.55,3.9-3.44,9.03-5.17,15.4-5.17,2.83,0,5.42.34,7.76,1.01,2.34.68,4.43,1.69,6.28,3.04ZM1630.99,388.05c-1.69,1.34-2.76,2.37-3.22,3.07-.46.7-.69,1.48-.69,2.33,0,1.6,1.27,2.86,3.82,3.76,2.55.9,5.81,1.35,9.79,1.35,2.9,0,5.46-.26,7.69-.79,2.23-.52,3.71-1.16,4.44-1.92.48-.49.72-1.16.72-2.01,0-.95-.48-1.74-1.43-2.38-.95-.64-3.26-1.19-6.92-1.64l-14.18-1.77ZM1637.91,344.06c-2.04,0-3.72.77-5.04,2.31-1.32,1.54-1.98,3.62-1.98,6.25,0,2.43.64,4.36,1.91,5.8,1.27,1.44,2.91,2.17,4.92,2.17s3.62-.75,4.94-2.24,1.98-3.42,1.98-5.78c0-2.62-.63-4.7-1.89-6.22-1.26-1.53-2.87-2.29-4.85-2.29Z"></path>
    <path class="st0" d="M1716.73,366.69l6.54,6.79c-3.76,4.43-7.58,7.63-11.48,9.62-3.9,1.98-8.11,2.98-12.63,2.98-7.26,0-13.37-2.53-18.33-7.6-4.96-5.07-7.45-11.19-7.45-18.37,0-4.72,1.11-9.04,3.34-12.96,2.23-3.92,5.31-6.99,9.26-9.2s8.42-3.32,13.42-3.32c3.18,0,6.08.48,8.69,1.43s4.89,2.31,6.85,4.08c1.96,1.77,3.53,3.91,4.73,6.42s2.01,5.11,2.46,7.8c.19,1.35.29,3.48.29,6.4h-32.13c.06,4.17,1.25,7.54,3.56,10.11,2.31,2.57,5.13,3.86,8.47,3.86,2.13,0,4.46-.66,6.97-1.99,2.51-1.33,5-3.34,7.45-6.03ZM1707.18,352.47c-.22-1.97-.68-3.52-1.36-4.65-.69-1.13-1.61-2.03-2.78-2.71-1.17-.67-2.39-1.01-3.66-1.01-1.34,0-2.63.34-3.88,1.03-1.24.69-2.24,1.62-2.99,2.8s-1.24,2.69-1.46,4.53h16.14Z"></path>
  </g>
  <g>
    <path class="st0" d="M697.63,427.09h11.23l15.01,39.97c.81,2.13,1.54,3.44,2.17,3.93.63.5,1.8.73,3.5.71v7.16h-23.66v-7.16l1.43-.04c1.31,0,2.24-.18,2.76-.54.53-.36.79-.8.79-1.32,0-.45-.23-1.36-.68-2.75l-1.49-4.71h-15.2l-1.87,5.23c-.38,1.11-.57,1.84-.57,2.19,0,.4.14.75.41,1.08.27.32.72.56,1.34.71.41.1,1.53.15,3.37.15v7.16h-19.36v-7.16c1.24,0,2.15-.11,2.72-.33.57-.22,1.04-.56,1.42-1,.37-.45.78-1.27,1.24-2.49l15.45-40.78ZM696.13,454.96h9.93l-4.84-14.22-5.09,14.22Z"></path>
    <path class="st0" d="M748.25,440.93v4.94c2.7-1.9,5.01-3.2,6.94-3.9,1.92-.69,3.89-1.04,5.9-1.04,2.32,0,4.37.51,6.15,1.52,1.78,1.01,3.08,2.28,3.89,3.8s1.22,3.68,1.22,6.48v15.44c0,1.31.09,2.15.27,2.52s.46.64.84.82c.29.12,1.15.19,2.58.19h1.76v7.16h-21.04v-7.16c1.6-.02,2.5-.06,2.69-.11.6-.17.99-.46,1.18-.85s.29-1.25.29-2.56v-13.6c0-1.75-.18-2.89-.54-3.41-.57-.86-1.48-1.3-2.72-1.3-1.03,0-2.13.23-3.3.7s-2.75,1.43-4.73,2.89v14.71c0,1.61.17,2.59.51,2.96.34.37,1.14.56,2.42.56h1.16v7.16h-20.83v-7.16h1.04c1.65,0,2.67-.07,3.06-.22.39-.15.69-.41.9-.78s.3-1.1.3-2.19v-17.26h-5.3v-7.16c4.29-.55,8.31-1.6,12.05-3.15h3.33Z"></path>
    <path class="st0" d="M825.38,427.09h11.23l15.01,39.97c.81,2.13,1.54,3.44,2.17,3.93.63.5,1.8.73,3.5.71v7.16h-23.66v-7.16l1.43-.04c1.31,0,2.23-.18,2.76-.54.53-.36.79-.8.79-1.32,0-.45-.23-1.36-.68-2.75l-1.49-4.71h-15.2l-1.88,5.23c-.38,1.11-.57,1.84-.57,2.19,0,.4.14.75.41,1.08.27.32.72.56,1.34.71.41.1,1.53.15,3.37.15v7.16h-19.36v-7.16c1.24,0,2.15-.11,2.72-.33.57-.22,1.04-.56,1.41-1,.37-.45.78-1.27,1.24-2.49l15.45-40.78ZM823.88,454.96h9.93l-4.84-14.22-5.09,14.22Z"></path>
    <path class="st0" d="M859.22,441.82l16.74-.33v24.08c0,1.71.1,2.85.3,3.41.2.57.57,1.03,1.11,1.39.54.36,1.21.54,2.03.54,1.2,0,2.46-.3,3.8-.89.53-.25,1.92-1.12,4.19-2.63v-14.47c0-1.26-.1-2.13-.29-2.6-.19-.47-.47-.81-.83-1.02-.36-.21-1.06-.32-2.09-.32h-2.09v-7.16l16.81-.33v26.57c0,1.39.08,2.26.23,2.62.16.36.41.62.75.78.35.16,1.18.24,2.49.24h1.9v7.16l-15.74.45v-4.38c-2.1,1.61-4.21,2.81-6.34,3.62-2.12.8-4.26,1.21-6.41,1.21-1.72,0-3.3-.29-4.74-.87s-2.65-1.36-3.63-2.34c-.98-.98-1.71-2.12-2.18-3.43-.48-1.31-.71-2.99-.71-5.05v-15.29c0-1.41-.08-2.3-.23-2.67-.16-.37-.42-.65-.78-.83-.36-.19-1.13-.28-2.31-.28h-1.99v-7.16Z"></path>
    <path class="st0" d="M924.68,429.09v12.73h11.54v7.9h-11.54v12.91c0,2.92.15,4.79.45,5.62.3.83.85,1.49,1.67,1.99,1.07.67,2.3,1,3.69,1,2.46,0,4.91-.83,7.35-2.49v7.94c-2.08,1.01-3.96,1.73-5.64,2.13-1.69.41-3.51.61-5.47.61-2.22,0-4.19-.29-5.9-.87-1.71-.58-3.17-1.41-4.37-2.49-1.21-1.08-2.04-2.22-2.51-3.43-.47-1.21-.7-2.97-.7-5.27v-17.66h-5.38v-7.12c1.91-.64,3.55-1.56,4.91-2.76,1.36-1.2,2.46-2.64,3.28-4.32.82-1.68,1.39-3.82,1.7-6.42h6.92Z"></path>
    <path class="st0" d="M962.24,440.93c4.09,0,7.65.83,10.68,2.49,3.03,1.66,5.37,3.92,7.01,6.77s2.46,6.2,2.46,10.04c0,5.79-1.82,10.49-5.45,14.1-3.63,3.61-8.48,5.42-14.55,5.42s-11.11-1.82-14.77-5.46c-3.54-3.46-5.31-8.15-5.31-14.06,0-3.88.81-7.22,2.42-10.02,1.61-2.79,3.95-5.04,7.01-6.74,3.06-1.69,6.56-2.54,10.5-2.54ZM962.39,449.06c-1.36,0-2.64.42-3.83,1.26-1.2.84-2.12,2.08-2.78,3.71s-.99,3.71-.99,6.23.32,4.75.97,6.46c.64,1.71,1.54,2.97,2.67,3.79s2.38,1.22,3.75,1.22c2.1,0,3.91-.92,5.41-2.76,1.51-1.84,2.26-4.71,2.26-8.59s-.7-6.59-2.1-8.48-3.18-2.84-5.36-2.84Z"></path>
    <path class="st0" d="M1003.75,440.93v4.94c2.7-1.9,5.01-3.2,6.94-3.9,1.92-.69,3.89-1.04,5.9-1.04,2.32,0,4.37.51,6.15,1.52,1.78,1.01,3.08,2.28,3.89,3.8s1.22,3.68,1.22,6.48v15.44c0,1.31.09,2.15.27,2.52.18.37.46.64.84.82.29.12,1.15.19,2.58.19h1.76v7.16h-21.04v-7.16c1.6-.02,2.5-.06,2.69-.11.6-.17.99-.46,1.18-.85s.29-1.25.29-2.56v-13.6c0-1.75-.18-2.89-.54-3.41-.57-.86-1.48-1.3-2.72-1.3-1.03,0-2.13.23-3.3.7s-2.75,1.43-4.73,2.89v14.71c0,1.61.17,2.59.51,2.96.34.37,1.14.56,2.42.56h1.16v7.16h-20.83v-7.16h1.04c1.65,0,2.67-.07,3.07-.22.39-.15.69-.41.9-.78s.3-1.1.3-2.19v-17.26h-5.3v-7.16c4.29-.55,8.31-1.6,12.05-3.15h3.33Z"></path>
    <path class="st0" d="M1057.7,440.93c4.09,0,7.65.83,10.68,2.49,3.03,1.66,5.37,3.92,7.01,6.77,1.64,2.86,2.46,6.2,2.46,10.04,0,5.79-1.82,10.49-5.45,14.1-3.63,3.61-8.48,5.42-14.55,5.42s-11.11-1.82-14.77-5.46c-3.54-3.46-5.31-8.15-5.31-14.06,0-3.88.81-7.22,2.42-10.02,1.61-2.79,3.95-5.04,7.01-6.74,3.06-1.69,6.56-2.54,10.5-2.54ZM1057.84,449.06c-1.36,0-2.64.42-3.84,1.26-1.2.84-2.12,2.08-2.78,3.71-.66,1.63-.99,3.71-.99,6.23s.32,4.75.97,6.46c.64,1.71,1.54,2.97,2.67,3.79s2.38,1.22,3.75,1.22c2.1,0,3.91-.92,5.41-2.76,1.51-1.84,2.26-4.71,2.26-8.59s-.7-6.59-2.1-8.48c-1.4-1.89-3.19-2.84-5.36-2.84Z"></path>
    <path class="st0" d="M1099.64,440.93v4.94c2.08-1.66,4.19-2.89,6.34-3.71,2.15-.82,4.33-1.22,6.55-1.22,1.41,0,2.76.22,4.07.65,1.3.43,2.39,1,3.26,1.69.87.69,1.67,1.63,2.38,2.82,2.32-1.83,4.54-3.15,6.66-3.95,2.12-.8,4.29-1.21,6.48-1.21,1.91,0,3.64.36,5.19,1.08,1.55.72,2.81,1.69,3.78,2.91s1.59,2.55,1.88,3.99c.19.89.29,2.19.29,3.9v15.36c0,1.26.09,2.08.27,2.45s.48.66.91.85c.31.15,1.18.22,2.62.22h1.58v7.16h-20.9v-7.16c1.54,0,2.51-.08,2.91-.24.4-.16.7-.42.89-.78s.28-1.15.28-2.36v-13.49c0-1.56-.1-2.6-.3-3.1-.21-.51-.6-.94-1.19-1.3-.59-.36-1.29-.54-2.1-.54-.94,0-1.94.22-3.02.65-1.08.43-2.67,1.38-4.78,2.84v14.53c0,1.44.09,2.34.28,2.71.19.37.52.66,1,.85.28.12,1.22.2,2.81.22v7.16h-19.61v-7.16c1.62-.02,2.62-.11,2.98-.26s.63-.42.82-.82.29-1.3.29-2.7v-12.71c0-1.95-.17-3.25-.5-3.89-.53-.96-1.46-1.45-2.81-1.45-.67,0-1.38.09-2.12.26-.74.17-1.47.45-2.19.82-.38.2-1.37.84-2.95,1.93l-.83.56v14.49c0,1.38.07,2.25.21,2.59.14.35.42.63.84.85.42.22,1.14.33,2.17.33h.97v7.16h-20.93v-7.16h1.4c1.48,0,2.41-.08,2.78-.24s.65-.44.84-.85c.19-.41.29-1.3.29-2.69v-16.67h-5.31v-7.16c4.38-.43,8.43-1.48,12.14-3.15h3.38Z"></path>
    <path class="st0" d="M1176.63,440.93c4.09,0,7.65.83,10.68,2.49,3.03,1.66,5.37,3.92,7.01,6.77,1.64,2.86,2.46,6.2,2.46,10.04,0,5.79-1.82,10.49-5.45,14.1-3.63,3.61-8.48,5.42-14.55,5.42s-11.11-1.82-14.77-5.46c-3.54-3.46-5.3-8.15-5.3-14.06,0-3.88.81-7.22,2.42-10.02,1.61-2.79,3.95-5.04,7.01-6.74,3.06-1.69,6.56-2.54,10.5-2.54ZM1176.78,449.06c-1.36,0-2.64.42-3.84,1.26-1.2.84-2.12,2.08-2.78,3.71s-.99,3.71-.99,6.23.32,4.75.97,6.46,1.54,2.97,2.67,3.79c1.13.82,2.38,1.22,3.75,1.22,2.1,0,3.91-.92,5.41-2.76,1.51-1.84,2.26-4.71,2.26-8.59s-.7-6.59-2.1-8.48-3.18-2.84-5.36-2.84Z"></path>
    <path class="st0" d="M1201.37,441.82l16.74-.33v24.08c0,1.71.1,2.85.3,3.41.2.57.57,1.03,1.11,1.39.54.36,1.21.54,2.03.54,1.19,0,2.46-.3,3.8-.89.53-.25,1.92-1.12,4.19-2.63v-14.47c0-1.26-.1-2.13-.29-2.6-.19-.47-.47-.81-.83-1.02-.36-.21-1.06-.32-2.09-.32h-2.09v-7.16l16.81-.33v26.57c0,1.39.08,2.26.23,2.62.15.36.41.62.75.78.35.16,1.18.24,2.49.24h1.9v7.16l-15.74.45v-4.38c-2.1,1.61-4.21,2.81-6.34,3.62-2.12.8-4.26,1.21-6.41,1.21-1.72,0-3.3-.29-4.74-.87-1.45-.58-2.66-1.36-3.63-2.34-.98-.98-1.71-2.12-2.18-3.43-.48-1.31-.71-2.99-.71-5.05v-15.29c0-1.41-.08-2.3-.23-2.67-.16-.37-.42-.65-.78-.83-.36-.19-1.13-.28-2.31-.28h-1.99v-7.16Z"></path>
    <path class="st0" d="M1275.03,441.82h4.7l2.9,10.32-6.77,2.82c-1.29-2.15-2.91-3.84-4.86-5.07-1.95-1.22-3.88-1.84-5.79-1.84-1.27,0-2.21.22-2.83.67-.62.45-.93.98-.93,1.6,0,.52.22,1,.66,1.45s1.36.92,2.74,1.41l9.86,3.64c1.74.64,3.42,1.45,5.02,2.41s2.8,2.15,3.6,3.54c.8,1.4,1.2,3.04,1.2,4.92,0,3.37-1.24,6.12-3.73,8.28-2.92,2.52-6.55,3.79-10.9,3.79-3.73,0-6.98-.98-9.75-2.93l-1,2.04h-4.77l-4.41-12.17,6.77-2.97c1.7,2.75,3.79,4.91,6.27,6.48,2.49,1.57,4.77,2.36,6.85,2.36,1.29,0,2.38-.31,3.26-.93.67-.49,1-1.08,1-1.74,0-.57-.26-1.11-.79-1.63-.53-.52-1.69-1.1-3.48-1.74l-7.74-2.78c-4.28-1.56-7.19-3.22-8.73-4.99-1.54-1.77-2.31-3.87-2.31-6.29,0-3.12,1.21-5.74,3.62-7.87,2.75-2.42,6.14-3.64,10.18-3.64,3.58,0,6.66.84,9.21,2.52l.93-1.63Z"></path>
    <path class="st0" d="M1313.56,427.09h24.41v7.16h-2.22c-1.29,0-2.15.12-2.56.35-.42.24-.73.61-.93,1.11-.2.51-.3,1.48-.3,2.91v28.65c0,1.56.08,2.56.25,3.01.17.45.45.77.86.96.5.3,1.25.45,2.26.45h2.65v7.16h-24.41v-7.16h1.98c1.42,0,2.34-.1,2.78-.32.43-.21.75-.54.96-1,.2-.46.31-1.37.31-2.73v-28.76c0-1.61-.1-2.67-.31-3.17-.2-.51-.55-.9-1.03-1.17-.34-.2-1.15-.3-2.45-.3h-2.24v-7.16Z"></path>
    <path class="st0" d="M1359.09,440.93v4.94c2.7-1.9,5.01-3.2,6.94-3.9,1.92-.69,3.89-1.04,5.9-1.04,2.32,0,4.37.51,6.15,1.52,1.78,1.01,3.08,2.28,3.89,3.8s1.22,3.68,1.22,6.48v15.44c0,1.31.09,2.15.27,2.52.18.37.46.64.84.82.29.12,1.15.19,2.58.19h1.76v7.16h-21.04v-7.16c1.6-.02,2.5-.06,2.69-.11.6-.17.99-.46,1.18-.85s.29-1.25.29-2.56v-13.6c0-1.75-.18-2.89-.54-3.41-.57-.86-1.48-1.3-2.72-1.3-1.03,0-2.13.23-3.3.7s-2.75,1.43-4.73,2.89v14.71c0,1.61.17,2.59.51,2.96.34.37,1.15.56,2.42.56h1.16v7.16h-20.83v-7.16h1.04c1.65,0,2.67-.07,3.06-.22s.69-.41.9-.78c.2-.37.3-1.1.3-2.19v-17.26h-5.31v-7.16c4.29-.55,8.31-1.6,12.05-3.15h3.33Z"></path>
    <path class="st0" d="M1417.45,441.82h4.7l2.9,10.32-6.77,2.82c-1.29-2.15-2.91-3.84-4.86-5.07-1.95-1.22-3.88-1.84-5.79-1.84-1.27,0-2.21.22-2.83.67-.62.45-.93.98-.93,1.6,0,.52.22,1,.66,1.45s1.36.92,2.74,1.41l9.86,3.64c1.74.64,3.42,1.45,5.02,2.41s2.8,2.15,3.6,3.54c.8,1.4,1.2,3.04,1.2,4.92,0,3.37-1.24,6.12-3.73,8.28-2.92,2.52-6.55,3.79-10.9,3.79-3.73,0-6.98-.98-9.75-2.93l-1,2.04h-4.77l-4.41-12.17,6.77-2.97c1.7,2.75,3.79,4.91,6.27,6.48,2.49,1.57,4.77,2.36,6.85,2.36,1.29,0,2.38-.31,3.26-.93.67-.49,1-1.08,1-1.74,0-.57-.26-1.11-.79-1.63-.53-.52-1.69-1.1-3.48-1.74l-7.74-2.78c-4.28-1.56-7.19-3.22-8.73-4.99-1.54-1.77-2.31-3.87-2.31-6.29,0-3.12,1.21-5.74,3.62-7.87,2.75-2.42,6.14-3.64,10.18-3.64,3.58,0,6.66.84,9.21,2.52l.93-1.63Z"></path>
    <path class="st0" d="M1447.41,429.09v12.73h11.54v7.9h-11.54v12.91c0,2.92.15,4.79.45,5.62.3.83.85,1.49,1.67,1.99,1.08.67,2.31,1,3.69,1,2.46,0,4.91-.83,7.35-2.49v7.94c-2.08,1.01-3.96,1.73-5.65,2.13s-3.51.61-5.47.61c-2.22,0-4.19-.29-5.9-.87-1.71-.58-3.17-1.41-4.37-2.49s-2.04-2.22-2.51-3.43c-.47-1.21-.7-2.97-.7-5.27v-17.66h-5.38v-7.12c1.91-.64,3.55-1.56,4.91-2.76,1.36-1.2,2.46-2.64,3.28-4.32.83-1.68,1.39-3.82,1.7-6.42h6.92Z"></path>
    <path class="st0" d="M1481.89,440.93v27.42c0,1.31.07,2.12.22,2.41.14.3.4.53.77.69.37.16,1.2.24,2.49.24h1.94v7.16h-22.15v-7.16h1.9c1.24,0,2.04-.07,2.38-.2.35-.14.6-.36.77-.69.17-.32.25-.96.25-1.93v-17.7h-5.3v-6.98c1.89-.1,3.7-.31,5.43-.63,1.73-.32,3.28-.71,4.64-1.15.88-.3,1.97-.79,3.26-1.48h3.41ZM1476.09,424.38c1.82,0,3.36.66,4.64,1.99,1.28,1.32,1.92,2.93,1.92,4.81s-.64,3.52-1.92,4.84c-1.28,1.32-2.83,1.99-4.64,1.99s-3.36-.66-4.64-1.99c-1.28-1.32-1.92-2.92-1.92-4.81s.66-3.46,1.97-4.81c1.31-1.35,2.84-2.02,4.59-2.02Z"></path>
    <path class="st0" d="M1507.6,429.09v12.73h11.54v7.9h-11.54v12.91c0,2.92.15,4.79.45,5.62.3.83.85,1.49,1.67,1.99,1.08.67,2.31,1,3.69,1,2.46,0,4.91-.83,7.35-2.49v7.94c-2.08,1.01-3.96,1.73-5.65,2.13s-3.51.61-5.47.61c-2.22,0-4.19-.29-5.9-.87-1.71-.58-3.17-1.41-4.37-2.49s-2.04-2.22-2.51-3.43c-.47-1.21-.7-2.97-.7-5.27v-17.66h-5.38v-7.12c1.91-.64,3.55-1.56,4.91-2.76,1.36-1.2,2.46-2.64,3.28-4.32.83-1.68,1.39-3.82,1.7-6.42h6.92Z"></path>
    <path class="st0" d="M1524.37,441.82l16.74-.33v24.08c0,1.71.1,2.85.3,3.41.2.57.57,1.03,1.11,1.39.54.36,1.21.54,2.03.54,1.19,0,2.46-.3,3.8-.89.53-.25,1.92-1.12,4.19-2.63v-14.47c0-1.26-.1-2.13-.29-2.6-.19-.47-.47-.81-.83-1.02-.36-.21-1.06-.32-2.09-.32h-2.09v-7.16l16.81-.33v26.57c0,1.39.08,2.26.23,2.62.15.36.41.62.75.78.35.16,1.18.24,2.49.24h1.9v7.16l-15.74.45v-4.38c-2.1,1.61-4.21,2.81-6.34,3.62s-4.26,1.21-6.41,1.21c-1.72,0-3.3-.29-4.74-.87-1.44-.58-2.66-1.36-3.63-2.34-.98-.98-1.71-2.12-2.18-3.43-.48-1.31-.72-2.99-.72-5.05v-15.29c0-1.41-.08-2.3-.23-2.67-.16-.37-.42-.65-.78-.83s-1.13-.28-2.31-.28h-1.98v-7.16Z"></path>
    <path class="st0" d="M1589.83,429.09v12.73h11.54v7.9h-11.54v12.91c0,2.92.15,4.79.45,5.62.3.83.85,1.49,1.67,1.99,1.08.67,2.31,1,3.69,1,2.46,0,4.91-.83,7.35-2.49v7.94c-2.08,1.01-3.96,1.73-5.65,2.13s-3.51.61-5.47.61c-2.22,0-4.19-.29-5.9-.87-1.71-.58-3.17-1.41-4.37-2.49s-2.04-2.22-2.51-3.43c-.47-1.21-.7-2.97-.7-5.27v-17.66h-5.38v-7.12c1.91-.64,3.55-1.56,4.91-2.76,1.36-1.2,2.46-2.64,3.28-4.32.83-1.68,1.39-3.82,1.7-6.42h6.92Z"></path>
    <path class="st0" d="M1624.31,440.93v27.42c0,1.31.07,2.12.22,2.41.14.3.4.53.77.69.37.16,1.2.24,2.49.24h1.94v7.16h-22.15v-7.16h1.9c1.24,0,2.04-.07,2.38-.2.35-.14.6-.36.77-.69.17-.32.25-.96.25-1.93v-17.7h-5.3v-6.98c1.89-.1,3.7-.31,5.43-.63,1.73-.32,3.28-.71,4.64-1.15.88-.3,1.97-.79,3.26-1.48h3.41ZM1618.5,424.38c1.82,0,3.36.66,4.64,1.99,1.28,1.32,1.92,2.93,1.92,4.81s-.64,3.52-1.92,4.84c-1.28,1.32-2.83,1.99-4.64,1.99s-3.36-.66-4.64-1.99c-1.28-1.32-1.92-2.92-1.92-4.81s.66-3.46,1.97-4.81c1.31-1.35,2.84-2.02,4.59-2.02Z"></path>
    <path class="st0" d="M1653.81,440.93c4.09,0,7.65.83,10.68,2.49,3.04,1.66,5.37,3.92,7.01,6.77s2.46,6.2,2.46,10.04c0,5.79-1.82,10.49-5.45,14.1-3.63,3.61-8.48,5.42-14.55,5.42s-11.11-1.82-14.77-5.46c-3.54-3.46-5.3-8.15-5.3-14.06,0-3.88.81-7.22,2.42-10.02,1.61-2.79,3.95-5.04,7.01-6.74,3.06-1.69,6.56-2.54,10.5-2.54ZM1653.95,449.06c-1.36,0-2.64.42-3.84,1.26-1.2.84-2.12,2.08-2.78,3.71-.66,1.63-.99,3.71-.99,6.23s.32,4.75.97,6.46c.65,1.71,1.54,2.97,2.67,3.79,1.13.82,2.38,1.22,3.75,1.22,2.1,0,3.91-.92,5.41-2.76,1.51-1.84,2.26-4.71,2.26-8.59s-.7-6.59-2.1-8.48c-1.4-1.89-3.18-2.84-5.36-2.84Z"></path>
    <path class="st0" d="M1695.32,440.93v4.94c2.7-1.9,5.01-3.2,6.94-3.9,1.92-.69,3.89-1.04,5.9-1.04,2.32,0,4.37.51,6.15,1.52,1.78,1.01,3.08,2.28,3.89,3.8s1.22,3.68,1.22,6.48v15.44c0,1.31.09,2.15.27,2.52.18.37.46.64.84.82.29.12,1.15.19,2.58.19h1.76v7.16h-21.04v-7.16c1.6-.02,2.5-.06,2.69-.11.6-.17.99-.46,1.18-.85s.29-1.25.29-2.56v-13.6c0-1.75-.18-2.89-.54-3.41-.57-.86-1.48-1.3-2.72-1.3-1.03,0-2.13.23-3.3.7s-2.75,1.43-4.73,2.89v14.71c0,1.61.17,2.59.51,2.96.34.37,1.15.56,2.42.56h1.16v7.16h-20.83v-7.16h1.04c1.65,0,2.67-.07,3.06-.22s.69-.41.9-.78c.2-.37.3-1.1.3-2.19v-17.26h-5.31v-7.16c4.29-.55,8.31-1.6,12.05-3.15h3.33Z"></path>
  </g>
</svg>
